<svg height="512" viewBox="0 0 128 128" width="512" xmlns="http://www.w3.org/2000/svg"><g><path d="m24.247 11.306v99.532a5.483 5.483 0 0 0 3.454 5.106c5.436 2.15 17.363 5.75 36.3 5.75s30.863-3.6 36.3-5.75a5.483 5.483 0 0 0 3.454-5.106v-99.532a5 5 0 0 0 -5-5h-69.508a5 5 0 0 0 -5 5z" fill="#5d86f9"/><path d="m35.612 17.672h56.775v32.478h-56.775z" fill="#f1f1fb"/><g fill="#ffd92d"><path d="m84.724 87.829h3.652a4.011 4.011 0 0 0 4.012-4.011 4.011 4.011 0 0 0 -4.012-4.011h-3.652a4.011 4.011 0 0 0 -4.011 4.011 4.011 4.011 0 0 0 4.011 4.011z"/><path d="m39.623 87.829h3.653a4.011 4.011 0 0 0 4.011-4.011 4.011 4.011 0 0 0 -4.011-4.011h-3.653a4.011 4.011 0 0 0 -4.011 4.011 4.011 4.011 0 0 0 4.011 4.011z"/><path d="m62.174 87.829h3.652a4.011 4.011 0 0 0 4.011-4.011 4.011 4.011 0 0 0 -4.011-4.011h-3.652a4.011 4.011 0 0 0 -4.011 4.011 4.011 4.011 0 0 0 4.011 4.011z"/><path d="m84.724 70.329h3.652a4.011 4.011 0 0 0 4.012-4.011 4.011 4.011 0 0 0 -4.012-4.011h-3.652a4.011 4.011 0 0 0 -4.011 4.011 4.011 4.011 0 0 0 4.011 4.011z"/><path d="m39.623 70.329h3.653a4.011 4.011 0 0 0 4.011-4.011 4.011 4.011 0 0 0 -4.011-4.011h-3.653a4.011 4.011 0 0 0 -4.011 4.011 4.011 4.011 0 0 0 4.011 4.011z"/><path d="m84.724 105.329h3.652a4.011 4.011 0 0 0 4.012-4.011 4.011 4.011 0 0 0 -4.012-4.011h-3.652a4.011 4.011 0 0 0 -4.011 4.011 4.011 4.011 0 0 0 4.011 4.011z"/><path d="m39.623 105.329h3.653a4.011 4.011 0 0 0 4.011-4.011 4.011 4.011 0 0 0 -4.011-4.011h-3.653a4.011 4.011 0 0 0 -4.011 4.011 4.011 4.011 0 0 0 4.011 4.011z"/><path d="m62.174 105.329h3.652a4.011 4.011 0 0 0 4.011-4.011 4.011 4.011 0 0 0 -4.011-4.011h-3.652a4.011 4.011 0 0 0 -4.011 4.011 4.011 4.011 0 0 0 4.011 4.011z"/></g><path d="m69.661 66.318a5.661 5.661 0 1 1 -5.661-5.661 5.662 5.662 0 0 1 5.661 5.661z" fill="#f9502e"/><path d="m86.55 119.75a123.57 123.57 0 0 1 -22.55 1.94 123.57 123.57 0 0 1 -22.55-1.94l5.84-7.04h33.42z" fill="#4c60dd"/><g><path d="m103.753 87.029a1.75 1.75 0 0 0 -1.75 1.75v4.5a1.75 1.75 0 0 0 3.5 0v-4.5a1.75 1.75 0 0 0 -1.75-1.75z"/><path d="m103.753 100.765a1.75 1.75 0 0 0 -1.75 1.75v8.322a3.711 3.711 0 0 1 -2.347 3.479 72.13 72.13 0 0 1 -12.42 3.518l-5.176-6.243a1.752 1.752 0 0 0 -1.347-.633h-33.426a1.751 1.751 0 0 0 -1.348.634l-5.174 6.242a72.119 72.119 0 0 1 -12.421-3.518 3.711 3.711 0 0 1 -2.344-3.479v-79.8a1.75 1.75 0 0 0 -3.5 0v79.8a7.192 7.192 0 0 0 4.56 6.734c5.543 2.193 17.714 5.872 36.943 5.872s31.4-3.679 36.943-5.872a7.192 7.192 0 0 0 4.56-6.734v-8.322a1.75 1.75 0 0 0 -1.753-1.75zm-59.019 17.766 3.375-4.073h31.782l3.376 4.073a124.82 124.82 0 0 1 -19.267 1.412 124.816 124.816 0 0 1 -19.266-1.412z"/><path d="m98.753 4.557h-69.506a6.757 6.757 0 0 0 -6.75 6.75v10.365a1.75 1.75 0 0 0 3.5 0v-10.365a3.254 3.254 0 0 1 3.25-3.25h69.506a3.254 3.254 0 0 1 3.25 3.25v67.815a1.75 1.75 0 0 0 3.5 0v-67.815a6.757 6.757 0 0 0 -6.75-6.75z"/><path d="m94.138 17.672a1.751 1.751 0 0 0 -1.75-1.75h-56.776a1.75 1.75 0 0 0 -1.75 1.75v32.477a1.749 1.749 0 0 0 1.75 1.75h56.776a1.75 1.75 0 0 0 1.75-1.75zm-3.5 30.728h-53.276v-28.978h53.276z"/><path d="m88.377 78.057h-3.653a5.761 5.761 0 0 0 0 11.522h3.653a5.761 5.761 0 1 0 0-11.522zm0 8.022h-3.653a2.261 2.261 0 0 1 0-4.522h3.653a2.261 2.261 0 1 1 0 4.522z"/><path d="m39.623 89.579h3.653a5.761 5.761 0 0 0 0-11.522h-3.653a5.761 5.761 0 0 0 0 11.522zm0-8.022h3.653a2.261 2.261 0 0 1 0 4.522h-3.653a2.261 2.261 0 0 1 0-4.522z"/><path d="m65.826 78.057h-3.652a5.761 5.761 0 1 0 0 11.522h3.652a5.761 5.761 0 1 0 0-11.522zm0 8.022h-3.652a2.261 2.261 0 1 1 0-4.522h3.652a2.261 2.261 0 1 1 0 4.522z"/><path d="m88.377 60.557h-3.653a5.761 5.761 0 0 0 0 11.522h3.653a5.761 5.761 0 1 0 0-11.522zm0 8.022h-3.653a2.261 2.261 0 0 1 0-4.522h3.653a2.261 2.261 0 1 1 0 4.522z"/><path d="m39.623 72.079h3.653a5.761 5.761 0 0 0 0-11.522h-3.653a5.761 5.761 0 0 0 0 11.522zm0-8.022h3.653a2.261 2.261 0 0 1 0 4.522h-3.653a2.261 2.261 0 0 1 0-4.522z"/><path d="m88.377 95.557h-3.653a5.761 5.761 0 0 0 0 11.522h3.653a5.761 5.761 0 1 0 0-11.522zm0 8.022h-3.653a2.261 2.261 0 0 1 0-4.522h3.653a2.261 2.261 0 1 1 0 4.522z"/><path d="m39.623 107.079h3.653a5.761 5.761 0 0 0 0-11.522h-3.653a5.761 5.761 0 0 0 0 11.522zm0-8.022h3.653a2.261 2.261 0 0 1 0 4.522h-3.653a2.261 2.261 0 0 1 0-4.522z"/><path d="m65.826 95.557h-3.652a5.761 5.761 0 1 0 0 11.522h3.652a5.761 5.761 0 1 0 0-11.522zm0 8.022h-3.652a2.261 2.261 0 1 1 0-4.522h3.652a2.261 2.261 0 1 1 0 4.522z"/><path d="m64 73.729a7.411 7.411 0 1 0 -7.411-7.411 7.419 7.419 0 0 0 7.411 7.411zm0-11.322a3.911 3.911 0 1 1 -3.911 3.911 3.916 3.916 0 0 1 3.911-3.911z"/></g></g></svg>