<?xml version="1.0" encoding="iso-8859-1"?>
<!-- Generator: Adobe Illustrator 19.0.0, SVG Export Plug-In . SVG Version: 6.00 Build 0)  -->
<svg version="1.1" id="Layer_1" xmlns="http://www.w3.org/2000/svg" xmlns:xlink="http://www.w3.org/1999/xlink" x="0px" y="0px"
	 viewBox="0 0 496.8 496.8" style="enable-background:new 0 0 496.8 496.8;" xml:space="preserve">
<path style="fill:#121C1B;" d="M460.8,200.8c0-0.8-0.8-1.6-0.8-3.2c12-11.2,15.2-29.6,6.4-44.8l-20-33.6
	c-8.8-15.2-26.4-21.6-41.6-16.8c-0.8-0.8-1.6-1.6-2.4-2.4c4.8-16-2.4-33.6-16.8-41.6l-33.6-20c-15.2-8.8-33.6-5.6-44.8,6.4
	c-0.8,0-1.6-0.8-3.2-0.8c-4-16-18.4-28-36-28h-39.2c-17.6,0-31.2,12-36,28c-0.8,0-1.6,0.8-3.2,0.8c-11.2-12-29.6-15.2-44.8-6.4
	l-33.6,20C96,67.2,89.6,84.8,94.4,100c-0.8,0.8-1.6,1.6-2.4,2.4c-16-4.8-33.6,2.4-41.6,16.8l-20,33.6c-8.8,15.2-5.6,33.6,6.4,44.8
	c0,0.8-0.8,1.6-0.8,3.2c-16,4-28,18.4-28,36V276c0,17.6,12,31.2,28,36c0,0.8,0.8,1.6,0.8,3.2c-12,11.2-15.2,29.6-6.4,44.8l20,33.6
	c8.8,15.2,26.4,21.6,41.6,16.8c0.8,0.8,1.6,1.6,2.4,2.4c-4.8,16,2.4,33.6,16.8,41.6l33.6,20c15.2,8.8,33.6,5.6,44.8-6.4
	c0.8,0,1.6,0.8,3.2,0.8c4,16,18.4,28,36,28H268c17.6,0,31.2-12,36-28c0.8,0,1.6-0.8,3.2-0.8c11.2,12,29.6,15.2,44.8,6.4l33.6-20
	c15.2-8.8,21.6-26.4,16.8-41.6c0.8-0.8,1.6-1.6,2.4-2.4c16,4.8,33.6-2.4,41.6-16.8l20-33.6c8.8-15.2,5.6-33.6-6.4-44.8
	c0-0.8,0.8-1.6,0.8-3.2c16-4,28-18.4,28-36v-39.2C488.8,219.2,476.8,204.8,460.8,200.8z"/>
<path style="fill:#4C5051;" d="M460.8,184.8c0-0.8-0.8-1.6-0.8-3.2c12-11.2,15.2-29.6,6.4-44.8l-20-33.6
	C437.6,88,420,81.6,404.8,86.4c-0.8-0.8-1.6-1.6-2.4-2.4c4.8-16-2.4-33.6-16.8-41.6l-33.6-20c-15.2-8.8-33.6-5.6-44.8,6.4
	c-0.8,0-1.6-0.8-3.2-0.8c-4-16-18.4-28-36-28h-39.2c-17.6,0-31.2,12-36,28c-0.8,0-1.6,0.8-3.2,0.8c-11.2-12-29.6-15.2-44.8-6.4
	l-33.6,20C96,51.2,89.6,68.8,94.4,84c-0.8,0.8-1.6,1.6-2.4,2.4c-16-4.8-33.6,2.4-41.6,16.8l-20,33.6c-8.8,15.2-5.6,33.6,6.4,44.8
	c0,0.8-0.8,1.6-0.8,3.2c-16,4-28,18.4-28,36V260c0,17.6,12,31.2,28,36c0,0.8,0.8,1.6,0.8,3.2c-12,11.2-15.2,29.6-6.4,44.8l20,33.6
	c8.8,15.2,26.4,21.6,41.6,16.8c0.8,0.8,1.6,1.6,2.4,2.4c-4.8,16,2.4,33.6,16.8,41.6l33.6,20c15.2,8.8,33.6,5.6,44.8-6.4
	c0.8,0,1.6,0.8,3.2,0.8c4,16,18.4,28,36,28H268c17.6,0,31.2-12,36-28c0.8,0,1.6-0.8,3.2-0.8c11.2,12,29.6,15.2,44.8,6.4l33.6-20
	c15.2-8.8,21.6-26.4,16.8-41.6c0.8-0.8,1.6-1.6,2.4-2.4c16,4.8,33.6-2.4,41.6-16.8l20-33.6c8.8-15.2,5.6-33.6-6.4-44.8
	c0-0.8,0.8-1.6,0.8-3.2c16-4,28-18.4,28-36v-39.2C488.8,203.2,476.8,188.8,460.8,184.8z"/>
<path style="fill:#3E4344;" d="M460.8,184.8c0-0.8-0.8-1.6-0.8-3.2c12-11.2,15.2-29.6,6.4-44.8l-20-33.6
	C437.6,88,420,81.6,404.8,86.4c-0.8-0.8-1.6-1.6-2.4-2.4c4.8-16-2.4-33.6-16.8-41.6l-33.6-20c-15.2-8.8-33.6-5.6-44.8,6.4
	c-0.8,0-1.6-0.8-3.2-0.8c-4-16-18.4-28-36-28h-39.2c-17.6,0-31.2,12-36,28c-0.8,0-1.6,0.8-3.2,0.8c-11.2-12-29.6-15.2-44.8-6.4
	l-33.6,20C96,51.2,89.6,68.8,94.4,84c-0.8,0.8-0.8,0.8-1.6,1.6l309.6,309.6c0.8-0.8,0.8-0.8,1.6-1.6c16,4.8,33.6-2.4,41.6-16.8
	l20-33.6c8.8-15.2,5.6-33.6-6.4-44.8c0-0.8,0.8-1.6,0.8-3.2c16-4,28-18.4,28-36V220C488.8,203.2,476.8,188.8,460.8,184.8z"/>
<path style="fill:#566366;" d="M248.8,109.6c73.6,0,134.4,57.6,139.2,129.6c0-3.2,0.8-5.6,0.8-8.8c0-76.8-62.4-140-140-140
	c-76.8,0-140,62.4-140,140c0,3.2,0,5.6,0.8,8.8C114.4,167.2,175.2,109.6,248.8,109.6z"/>
<path style="fill:#303435;" d="M248.8,100c-76.8,0-140,62.4-140,140c0,45.6,21.6,146.4,55.2,222.4c9.6,0,19.2-4,26.4-11.2
	c0.8,0,1.6,0.8,3.2,0.8c4,16,18.4,28,36,28h39.2c17.6,0,31.2-12,36-28c0.8,0,1.6-0.8,3.2-0.8c7.2,7.2,16.8,11.2,26.4,11.2
	c33.6-76,55.2-176.8,55.2-222.4C388.8,163.2,325.6,100,248.8,100z"/>
<circle style="fill:#121C1B;" cx="248.8" cy="240" r="140"/>
<path style="fill:#283538;" d="M150.4,338.4C96,284,96,195.2,150.4,140.8s143.2-54.4,197.6,0"/>
<path style="fill:#121C1B;" d="M256.8,176c0,4.8-3.2,8-8,8l0,0c-4.8,0-8-3.2-8-8v-32c0-4.8,3.2-8,8-8l0,0c4.8,0,8,3.2,8,8V176z"/>
<path style="fill:#EA398A;" d="M256.8,168c0,4.8-3.2,8-8,8l0,0c-4.8,0-8-3.2-8-8v-32c0-4.8,3.2-8,8-8l0,0c4.8,0,8,3.2,8,8V168z"/>
<g>
</g>
<g>
</g>
<g>
</g>
<g>
</g>
<g>
</g>
<g>
</g>
<g>
</g>
<g>
</g>
<g>
</g>
<g>
</g>
<g>
</g>
<g>
</g>
<g>
</g>
<g>
</g>
<g>
</g>
</svg>
