<?xml version="1.0" encoding="iso-8859-1"?>
<!-- Generator: Adobe Illustrator 19.0.0, SVG Export Plug-In . SVG Version: 6.00 Build 0)  -->
<svg version="1.1" id="Capa_1" xmlns="http://www.w3.org/2000/svg" xmlns:xlink="http://www.w3.org/1999/xlink" x="0px" y="0px"
	 viewBox="0 0 480.015 480.015" style="enable-background:new 0 0 480.015 480.015;" xml:space="preserve">
<g>
	<polygon style="fill:#ED903B;" points="296.011,400.007 402.675,272.007 416.011,256.007 368.011,200.007 264.011,328.007 	"/>
	<polygon style="fill:#ED903B;" points="376.011,472.007 472.011,328.007 448.011,272.007 344.011,400.007 	"/>
	<polygon style="fill:#ED903B;" points="160.011,400.007 192.011,472.007 224.011,400.007 	"/>
</g>
<g>
	<polygon style="fill:#F7CC40;" points="160.011,400.007 224.011,400.007 192.011,472.007 376.011,472.007 344.011,400.007 
		448.011,272.007 402.675,272.007 296.011,400.007 264.011,328.007 368.011,200.007 264.011,200.007 196.507,272.007 
		160.011,272.007 40.011,400.007 8.011,472.007 192.011,472.007 	"/>
	<path style="fill:#F7CC40;" d="M40.011,72.007c0-17.672,14.328-32,32-32c-17.672,0-32-14.328-32-32c0,17.672-14.328,32-32,32
		C25.683,40.007,40.011,54.335,40.011,72.007z"/>
	<path style="fill:#F7CC40;" d="M160.011,152.007c0,17.672-14.328,32-32,32c17.672,0,32,14.328,32,32c0-17.672,14.328-32,32-32
		C174.339,184.007,160.011,169.679,160.011,152.007z"/>
	<path style="fill:#F7CC40;" d="M408.011,8.007c0,35.344-28.656,64-64,64c35.344,0,64,28.656,64,64c0-35.344,28.656-64,64-64
		C436.667,72.007,408.011,43.351,408.011,8.007z"/>
</g>
<g>
	<path style="fill:#212329;" d="M34.083,394.671c-0.28,0.312-0.496,0.688-0.728,1.04c-0.192,0.296-0.416,0.576-0.568,0.896
		c-0.024,0.056-0.072,0.096-0.096,0.152l-32,72c-1.104,2.48-0.872,5.336,0.6,7.608s4.008,3.64,6.72,3.64h184h184
		c2.68,0,5.168-1.344,6.648-3.568l0.008,0.008l0.04-0.064c0-0.008,0.008-0.008,0.016-0.016c0-0.008,0-0.008,0.008-0.016
		l95.936-143.904c1.504-2.248,1.768-5.104,0.696-7.584l-24-56l-0.032,0.016c-0.04-0.096-0.048-0.208-0.096-0.304
		c-1.328-2.792-4.136-4.568-7.224-4.568h-28.248l2.392-2.872c2.496-3,2.472-7.368-0.08-10.328l-48-56l-0.008,0.008
		c-1.496-1.752-3.688-2.808-6.056-2.808h-104c-2.208,0-4.32,0.912-5.832,2.528l-65.128,69.472h-33.04
		c-2.208,0-4.32,0.912-5.832,2.528l-120,128C34.139,394.575,34.123,394.631,34.083,394.671z M20.323,464.007l24.88-56h66.808h42.808
		l24.88,56H20.323z M283.699,392.007h-59.688h-64h-35.688l18.96-42.664l5.92-13.336h109.608L283.699,392.007z M192.011,452.303
		l-19.688-44.296h39.376L192.011,452.303z M204.323,464.007l24.88-56h66.808h42.808l24.88,56H204.323z M377.419,455.471
		l-24.104-54.232l92.56-113.92l17.072,39.848L377.419,455.471z M431.203,280.007l-91,112h-27.112l93.336-112H431.203z
		 M396.539,266.871l-0.008,0.008l-98.432,118.12l-24.784-55.752l94.864-116.76l37.352,43.584L396.539,266.871z M267.483,208.007
		h83.728l-91.008,112h-97.72L267.483,208.007z M163.483,280.007h14.56l-39.864,42.528c-0.04,0.04-0.056,0.088-0.088,0.128
		c-0.28,0.312-0.496,0.688-0.728,1.04c-0.192,0.296-0.416,0.576-0.568,0.896c-0.024,0.056-0.072,0.096-0.096,0.152l-29.888,67.256
		H58.483L163.483,280.007z"/>
	<path style="fill:#212329;" d="M8.011,48.007c13.232,0,24,10.768,24,24c0,4.424,3.576,8,8,8s8-3.576,8-8c0-13.232,10.768-24,24-24
		c4.424,0,8-3.576,8-8s-3.576-8-8-8c-13.232,0-24-10.768-24-24c0-4.424-3.576-8-8-8s-8,3.576-8,8c0,13.232-10.768,24-24,24
		c-4.424,0-8,3.576-8,8S3.587,48.007,8.011,48.007z M40.011,31.983c2.28,3.04,4.984,5.744,8.024,8.024
		c-3.04,2.28-5.744,4.984-8.024,8.024c-2.28-3.04-4.984-5.744-8.024-8.024C35.027,37.727,37.731,35.023,40.011,31.983z"/>
	<path style="fill:#212329;" d="M152.011,216.007c0,4.424,3.576,8,8,8s8-3.576,8-8c0-13.232,10.768-24,24-24c4.424,0,8-3.576,8-8
		s-3.576-8-8-8c-13.232,0-24-10.768-24-24c0-4.424-3.576-8-8-8s-8,3.576-8,8c0,13.232-10.768,24-24,24c-4.424,0-8,3.576-8,8
		s3.576,8,8,8C141.243,192.007,152.011,202.775,152.011,216.007z M160.011,175.983c2.28,3.04,4.984,5.744,8.024,8.024
		c-3.04,2.28-5.744,4.984-8.024,8.024c-2.28-3.04-4.984-5.744-8.024-8.024C155.027,181.727,157.731,179.023,160.011,175.983z"/>
	<rect x="200.011" y="8.007" style="fill:#212329;" width="16" height="16"/>
	<rect x="40.011" y="112.007" style="fill:#212329;" width="16" height="16"/>
	<path style="fill:#212329;" d="M472.011,64.007c-30.872,0-56-25.128-56-56c0-4.424-3.576-8-8-8s-8,3.576-8,8
		c0,30.872-25.128,56-56,56c-4.424,0-8,3.576-8,8s3.576,8,8,8c30.872,0,56,25.128,56,56c0,4.424,3.576,8,8,8s8-3.576,8-8
		c0-30.872,25.128-56,56-56c4.424,0,8-3.576,8-8S476.435,64.007,472.011,64.007z M408.011,103.039
		c-6.864-13.28-17.752-24.168-31.032-31.032c13.28-6.864,24.168-17.752,31.032-31.032c6.864,13.28,17.752,24.168,31.032,31.032
		C425.763,78.871,414.875,89.759,408.011,103.039z"/>
	<rect x="328.011" y="144.007" style="fill:#212329;" width="16" height="16"/>
	<rect x="464.011" y="200.007" style="fill:#212329;" width="16" height="16"/>
	<rect x="0.011" y="280.007" style="fill:#212329;" width="16" height="16"/>
</g>
<g>
</g>
<g>
</g>
<g>
</g>
<g>
</g>
<g>
</g>
<g>
</g>
<g>
</g>
<g>
</g>
<g>
</g>
<g>
</g>
<g>
</g>
<g>
</g>
<g>
</g>
<g>
</g>
<g>
</g>
</svg>
