<svg height="512pt" viewBox="0 0 512 511" width="512pt" xmlns="http://www.w3.org/2000/svg"><path d="m256 .5c-141.386719 0-256 114.515625-256 255.773438 0 141.261718 114.613281 255.773437 256 255.773437s256-114.511719 256-255.773437c0-141.257813-114.613281-255.773438-256-255.773438zm-200 255.773438c0-44.960938 14.867188-86.453126 39.953125-119.84375l279.996094 279.75c-33.417969 25.0625-74.945313 39.917968-119.949219 39.917968-110.457031 0-200-89.464844-200-199.824218zm359.613281 120.410156-280.128906-279.882813c33.515625-25.324219 75.257813-40.351562 120.515625-40.351562 110.457031 0 200 89.464843 200 199.824219 0 45.21875-15.039062 86.921874-40.386719 120.410156zm0 0" fill="#e5554e"/><path d="m256 .5c-5.070312 0-10.109375.148438-15.105469.441406 134.449219 7.707032 241.105469 119.070313 241.105469 255.332032 0 136.265624-106.65625 247.625-241.105469 255.332031 4.996094.292969 10.035157.441406 15.105469.441406 141.386719 0 256-114.511719 256-255.773437 0-141.257813-114.613281-255.773438-256-255.773438zm0 0" fill="#c62430"/></svg>